# xmcd
#
# Track frame offsets:
# 150
# 16483
# 32542
# 51460
# 67443
# 84589
# 106000
# 127485
# 145750
# 167685
#
# Disc length: 2424 seconds
#
# Revision: 0
# Processed by: cddbd v1.5.1PL0 Copyright (c) Steve Scherf et al.
# Submitted via: Audion 3.0.2 (http://www.panic.com/audion/)
#
DISCID=9009760a
DTITLE=Steve White - 57 Miles From Mexico
DYEAR=1900
DGENRE=
TTITLE0=Farmer In A Field Of Love
TTITLE1=57 Miles From Mexico
TTITLE2=Drop Crew
TTITLE3=Bodega Bay
TTITLE4=Dottie Mae
TTITLE5=Keeping Love Alive
TTITLE6=Child Of Time
TTITLE7=Rolling Stone
TTITLE8=Good At Goodbye
TTITLE9=Border Town
EXTD=
EXTT0=
EXTT1=
EXTT2=
EXTT3=
EXTT4=
EXTT5=
EXTT6=
EXTT7=
EXTT8=
EXTT9=
PLAYORDER=
